<svg width="220" height="180" viewBox="0 0 220 180" fill="none" xmlns="http://www.w3.org/2000/svg">
<path fill-rule="evenodd" clip-rule="evenodd" d="M219.113 28.4835C186.312 43.9974 169.912 62.226 169.912 83.1698C183.892 84.7212 195.453 90.2156 204.595 99.6533C213.736 109.091 218.307 120.015 218.307 132.426C218.307 145.613 213.871 156.731 204.998 165.781C196.126 174.831 184.968 179.356 171.525 179.356C156.468 179.356 143.429 173.473 132.405 161.709C121.382 149.944 115.87 135.658 115.87 118.852C115.87 68.4314 145.176 29.0008 203.788 0.558594L219.113 28.4835ZM103.356 28.4835C70.286 43.9974 53.7512 62.226 53.7512 83.1698C68.0009 84.7212 79.6963 90.2156 88.8376 99.6533C97.979 109.091 102.55 120.015 102.55 132.426C102.55 145.613 98.0462 156.731 89.0393 165.781C80.0323 174.831 68.8075 179.356 55.3643 179.356C40.308 179.356 27.3356 173.473 16.4466 161.709C5.55767 149.944 0.113281 135.658 0.113281 118.852C0.113281 68.4314 29.2845 29.0008 87.6277 0.558594L103.356 28.4835Z" fill="#01621C" fill-opacity="0.27"/>
</svg>
